# xmcd
#
# Track frame offsets:
#	150
#	16405
#	29345
#	45739
#	64082
#	77320
#	92995
#	109873
#	126173
#	141877
#
# Disc length: 2166 seconds
#
# Revision: 1
# Processed by: cddbd v1.5.1PL0 Copyright (c) Steve Scherf et al.
# Submitted via: audiograbber 1.82.02
#
DISCID=8008740a
DTITLE=Bloomfield-Hammond-DrJohn - Triumvirate
DYEAR=1973
DGENRE=Blues
TTITLE0=Cha-Dooky-Doo
TTITLE1=Last Night
TTITLE2=I Yi Yi
TTITLE3=Just To Be With You
TTITLE4=Baby Let Me Kiss You
TTITLE5=Sho Bout To Drive Me Wild
TTITLE6=It Hurts Me Too
TTITLE7=Rock Me Baby
TTITLE8=Ground Hog Blues
TTITLE9=Preety Thing
EXTD=
EXTT0=
EXTT1=
EXTT2=
EXTT3=
EXTT4=
EXTT5=
EXTT6=
EXTT7=
EXTT8=
EXTT9=
PLAYORDER=
